<svg id="Layer_1" data-name="Layer 1" xmlns="http://www.w3.org/2000/svg" viewBox="0 0 512 512"><defs><style>.cls-1{fill:#fcf9f9;}.cls-2{fill:#5d8e33;}.cls-3{fill:#99ca6f;}.cls-4{fill:#57cc99;}.cls-5{fill:#d6d1cf;}.cls-6{fill:#fff;}</style></defs><title>cross-platform2</title><path class="cls-1" d="M391.79,404.87H120.21V385a14.85,14.85,0,0,1,14.85-14.85H376.93A14.85,14.85,0,0,1,391.79,385Z"/><path class="cls-2" d="M376.93,370.12H360.15A14.85,14.85,0,0,1,375,385v19.9h16.78V385A14.85,14.85,0,0,0,376.93,370.12Z"/><path class="cls-3" d="M135.07,370.12h16.78A14.85,14.85,0,0,0,137,385v19.9H120.21V385A14.85,14.85,0,0,1,135.07,370.12Z"/><path class="cls-1" d="M176.28,344.68H335.72v25.44H176.28Z"/><path class="cls-4" d="M391.79,408.87H120.21a4,4,0,0,1-4-4V385a18.88,18.88,0,0,1,18.85-18.85H376.93A18.88,18.88,0,0,1,395.79,385v19.9A4,4,0,0,1,391.79,408.87Zm-267.57-8H387.79V385a10.87,10.87,0,0,0-10.85-10.85H135.07A10.87,10.87,0,0,0,124.21,385Z"/><path class="cls-4" d="M335.72,374.12H176.28a4,4,0,0,1-4-4V344.69a4,4,0,0,1,4-4H335.72a4,4,0,0,1,4,4v25.44A4,4,0,0,1,335.72,374.12Zm-155.44-8H331.72V348.69H180.28Z"/><path class="cls-1" d="M449.27,344.68H62.73a14.85,14.85,0,0,1-14.85-14.85v-238A14.85,14.85,0,0,1,62.73,77H449.27a14.85,14.85,0,0,1,14.85,14.85v238a14.86,14.86,0,0,1-14.86,14.85Z"/><path class="cls-4" d="M234.12,203.45V159.07l-48.84,6.19v38.19Z"/><path class="cls-4" d="M247.73,203.45h65.35V149.81l-65.35,8.28Z"/><path class="cls-4" d="M234.12,217.06H185.27v38.72l48.84,8.15Z"/><path class="cls-4" d="M247.73,217.06v48.17l65.35,10.91V217.06Z"/><path class="cls-5" d="M449.27,77H432.49a14.85,14.85,0,0,1,14.85,14.85v238a14.85,14.85,0,0,1-14.85,14.85h16.78a14.85,14.85,0,0,0,14.85-14.85v-238A14.85,14.85,0,0,0,449.27,77Z"/><path class="cls-6" d="M62.73,344.68H79.51a14.85,14.85,0,0,1-14.85-14.85v-238A14.85,14.85,0,0,1,79.51,77H62.73A14.85,14.85,0,0,0,47.88,91.84v238a14.85,14.85,0,0,0,14.85,14.85Z"/><path class="cls-4" d="M449.27,348.69H62.73a18.88,18.88,0,0,1-18.85-18.86v-238A18.88,18.88,0,0,1,62.73,73H449.27a18.88,18.88,0,0,1,18.85,18.85v238A18.88,18.88,0,0,1,449.27,348.69ZM62.73,81A10.87,10.87,0,0,0,51.88,91.84v238a10.87,10.87,0,0,0,10.85,10.86H449.27a10.87,10.87,0,0,0,10.85-10.86v-238A10.87,10.87,0,0,0,449.27,81Z"/><path class="cls-4" d="M61.3,142a4,4,0,0,1-4-4V114a4,4,0,0,1,8,0v24A4,4,0,0,1,61.3,142Z"/><path class="cls-4" d="M234.12,207.45H185.27a4,4,0,0,1-4-4V165.26a4,4,0,0,1,3.5-4l48.84-6.19a4,4,0,0,1,4.5,4v44.38A4,4,0,0,1,234.12,207.45Zm-44.84-8h40.84V163.61l-40.84,5.17Z"/><path class="cls-4" d="M313.08,207.45H247.73a4,4,0,0,1-4-4V158.09a4,4,0,0,1,3.5-4l65.35-8.28a4,4,0,0,1,4.5,4v53.64a4,4,0,0,1-4,4Zm-61.35-8h57.35v-45.1l-57.35,7.26Z"/><path class="cls-4" d="M234.12,267.94a4.06,4.06,0,0,1-.66-.05l-48.84-8.15a4,4,0,0,1-3.34-3.95V217.06a4,4,0,0,1,4-4h48.84a4,4,0,0,1,4,4v46.87a4,4,0,0,1-4,4Zm-44.84-15.54,40.84,6.82V221.06H189.27Z"/><path class="cls-4" d="M313.08,280.14a4.06,4.06,0,0,1-.66-.05l-65.35-10.91a4,4,0,0,1-3.34-3.95V217.06a4,4,0,0,1,4-4h65.35a4,4,0,0,1,4,4v59.08a4,4,0,0,1-4,4Zm-61.35-18.3,57.35,9.57V221.06H251.73Z"/><path class="cls-1" d="M133.5,435H19.83A11.83,11.83,0,0,1,8,423.19V241.52A11.83,11.83,0,0,1,19.83,229.7H133.5a11.83,11.83,0,0,1,11.83,11.83V423.19A11.83,11.83,0,0,1,133.5,435Z"/><path class="cls-5" d="M133.5,229.7H121.67a11.83,11.83,0,0,1,11.83,11.83V423.19A11.83,11.83,0,0,1,121.67,435H133.5a11.83,11.83,0,0,0,11.83-11.83V241.53A11.83,11.83,0,0,0,133.5,229.7Z"/><path class="cls-6" d="M19.83,435H31.66a11.83,11.83,0,0,1-11.83-11.83V241.52A11.83,11.83,0,0,1,31.66,229.7H19.83A11.83,11.83,0,0,0,8,241.52V423.19A11.83,11.83,0,0,0,19.83,435Z"/><path class="cls-1" d="M103,249.25H50.29a8.28,8.28,0,0,1-7.62-5.05l-6.14-14.5H116.8l-6.14,14.5A8.28,8.28,0,0,1,103,249.25Z"/><path class="cls-4" d="M133.5,439H19.83A15.84,15.84,0,0,1,4,423.19V241.53A15.85,15.85,0,0,1,19.83,225.7H133.5a15.85,15.85,0,0,1,15.83,15.83V423.19A15.84,15.84,0,0,1,133.5,439ZM19.83,233.7A7.84,7.84,0,0,0,12,241.53V423.19A7.84,7.84,0,0,0,19.83,431H133.5a7.84,7.84,0,0,0,7.83-7.83V241.53a7.84,7.84,0,0,0-7.83-7.83Z"/><path class="cls-4" d="M103,253.25H50.29A12.26,12.26,0,0,1,39,245.76l-6.14-14.5a4,4,0,0,1,3.68-5.56H116.8a4,4,0,0,1,3.68,5.56l-6.14,14.5A12.25,12.25,0,0,1,103,253.25ZM42.57,233.7l3.79,8.94a4.27,4.27,0,0,0,3.94,2.61H103a4.28,4.28,0,0,0,3.94-2.61l3.78-8.94Z"/><path class="cls-1" d="M494.8,196.63H336.11a9.2,9.2,0,0,0-9.2,9.2v220a9.2,9.2,0,0,0,9.2,9.2H494.8a9.2,9.2,0,0,0,9.2-9.2v-220a9.2,9.2,0,0,0-9.2-9.2Z"/><path class="cls-1" d="M494.8,196.63H479.24a9.19,9.19,0,0,1,9.2,9.2v220a9.2,9.2,0,0,1-9.2,9.2H494.8a9.2,9.2,0,0,0,9.2-9.2v-220a9.2,9.2,0,0,0-9.2-9.2Z"/><path class="cls-1" d="M336.11,196.63h15.56a9.2,9.2,0,0,0-9.2,9.2v220a9.2,9.2,0,0,0,9.2,9.2H336.11a9.2,9.2,0,0,1-9.2-9.2v-220a9.19,9.19,0,0,1,9.2-9.2Z"/><path class="cls-4" d="M494.8,439H336.11a13.21,13.21,0,0,1-13.2-13.2v-220a13.21,13.21,0,0,1,13.2-13.2H494.8a13.21,13.21,0,0,1,13.2,13.2v220A13.21,13.21,0,0,1,494.8,439ZM336.11,200.63a5.2,5.2,0,0,0-5.2,5.2v220a5.2,5.2,0,0,0,5.2,5.2H494.8a5.2,5.2,0,0,0,5.2-5.2v-220a5.2,5.2,0,0,0-5.2-5.2Z"/><path class="cls-1" d="M344.54,215.6H486.38V399.49H344.54Z"/><path class="cls-4" d="M486.38,403.49H344.54a4,4,0,0,1-4-4V215.6a4,4,0,0,1,4-4H486.38a4,4,0,0,1,4,4V399.49A4,4,0,0,1,486.38,403.49Zm-137.84-8H482.38V219.6H348.54Z"/><path class="cls-4" d="M422.81,417.64a7.36,7.36,0,1,1-7.36-7.36A7.36,7.36,0,0,1,422.81,417.64Z"/><path class="cls-1" d="M453.54,342.85H377.38v-16a38.08,38.08,0,1,1,76.16,0Z"/><path class="cls-4" d="M453.54,346.85H377.38a4,4,0,0,1-4-4v-16a42.08,42.08,0,1,1,84.16,0v16A4,4,0,0,1,453.54,346.85Zm-72.16-8h68.16v-12a34.08,34.08,0,1,0-68.16,0Z"/><path class="cls-4" d="M390.6,301.15a4,4,0,0,1-2.83-1.17L373.5,285.72a4,4,0,0,1,5.66-5.66l14.26,14.26a4,4,0,0,1-2.83,6.83Z"/><path class="cls-4" d="M440.32,301.15a4,4,0,0,1-2.83-6.83l14.26-14.26a4,4,0,0,1,5.66,5.66L443.15,300A4,4,0,0,1,440.32,301.15Z"/><path class="cls-4" d="M398.61,329.36a4,4,0,0,1-4-4v-7.55a4,4,0,1,1,8,0v7.55A4,4,0,0,1,398.61,329.36Z"/><path class="cls-4" d="M432.3,329.36a4,4,0,0,1-4-4v-7.55a4,4,0,0,1,8,0v7.55A4,4,0,0,1,432.3,329.36Z"/><path class="cls-4" d="M98.2,339.91a17.07,17.07,0,0,1,10.6-15.8C104,316.23,94.87,312.64,79.62,319a7.68,7.68,0,0,1-5.92,0c-37-15.53-38.26,27.73-27.47,48.91C54.8,384.78,68.34,380,74,377.05a5.65,5.65,0,0,1,5.28,0c5.68,3,19.22,7.73,27.79-9.1a53.3,53.3,0,0,0,4.14-11.46,17.07,17.07,0,0,1-13-16.57Z"/><path class="cls-4" d="M80,291.17a17.47,17.47,0,0,0-4.89,15.17,17.47,17.47,0,0,0,20.06-20.06A17.46,17.46,0,0,0,80,291.17Z"/><path class="cls-4" d="M90.32,384a28.46,28.46,0,0,1-12.89-3.43,1.65,1.65,0,0,0-1.54,0c-3.78,2-11.28,5-19.05,2.5-5.85-1.86-10.62-6.34-14.17-13.33-8-15.65-9.36-40.07,1.25-51.5,4.9-5.27,14.31-10.05,31.34-2.92a3.68,3.68,0,0,0,2.83,0c20.89-8.76,30.36.44,34.15,6.7a4,4,0,0,1-1.91,5.77,13.06,13.06,0,0,0,1.85,24.78,4,4,0,0,1,2.94,4.83,57.53,57.53,0,0,1-4.46,12.33c-3.56,7-8.33,11.47-14.17,13.33a20.32,20.32,0,0,1-6.16.93ZM76.66,372.4a9.67,9.67,0,0,1,4.5,1.12c2.67,1.41,7.9,3.54,12.9,2,3.73-1.18,6.92-4.32,9.47-9.33a46,46,0,0,0,2.85-7.12A21.07,21.07,0,0,1,102.75,323c-4.68-4.2-11.92-4.29-21.58-.24a11.73,11.73,0,0,1-9,0c-10.25-4.3-17.78-4-22.38,1-8,8.59-6.57,29.48,0,42.42,2.55,5,5.73,8.15,9.47,9.33,5,1.59,10.23-.54,12.9-2A9.69,9.69,0,0,1,76.66,372.4Z"/><path class="cls-4" d="M77.87,310.56a21.42,21.42,0,0,1-3.42-.27A4,4,0,0,1,71.14,307a21.46,21.46,0,0,1,24.64-24.64,4,4,0,0,1,3.31,3.31,21.45,21.45,0,0,1-21.22,24.92ZM82.8,294a13.52,13.52,0,0,0-3.9,8.53A13.42,13.42,0,0,0,91.33,290.1,13.51,13.51,0,0,0,82.8,294Z"/></svg>