<svg id="Layer_1" data-name="Layer 1" xmlns="http://www.w3.org/2000/svg" viewBox="0 0 598.74 512.52"><defs><style>.cls-1{fill:#57cc99;}</style></defs><title>uxinterface</title><g id="Page-1"><g id="_027---Good-User-Experience" data-name="027---Good-User-Experience"><path id="Shape" class="cls-1" d="M513.42,278.45v-244A34.08,34.08,0,0,0,479.32.35H120.82a34.14,34.14,0,0,0-34.1,34.1v409.6a34.08,34.08,0,0,0,34.1,34.1h275a119.38,119.38,0,1,0,117.6-199.7Zm-392.6-261h358.4a17.09,17.09,0,0,1,17.1,17.1v68.3H103.82V34.45A17,17,0,0,1,120.82,17.45Zm-17,426.6V119.85h392.5v155a119.27,119.27,0,0,0-115,186.4H120.82A17.16,17.16,0,0,1,103.82,444.05Zm375.4,51.2a102.4,102.4,0,1,1,102.4-102.4A102.34,102.34,0,0,1,479.22,495.25Z"/><path id="Shape-2" data-name="Shape" class="cls-1" d="M146.42,85.65a25.6,25.6,0,1,0-25.6-25.6A25.65,25.65,0,0,0,146.42,85.65Zm0-34.1a8.5,8.5,0,1,1-8.5,8.5A8.49,8.49,0,0,1,146.42,51.55Z"/><path id="Shape-3" data-name="Shape" class="cls-1" d="M214.72,85.65a25.6,25.6,0,1,0-25.6-25.6A25.65,25.65,0,0,0,214.72,85.65Zm0-34.1a8.5,8.5,0,1,1-8.5,8.5A8.49,8.49,0,0,1,214.72,51.55Z"/><path id="Shape-4" data-name="Shape" class="cls-1" d="M368.32,85.65h85.3a25.6,25.6,0,1,0,0-51.2h-85.3a25.6,25.6,0,0,0,0,51.2Zm0-34.1h85.3a8.5,8.5,0,1,1,0,17h-85.3a8.5,8.5,0,0,1,0-17Z"/><path id="Shape-5" data-name="Shape" class="cls-1" d="M257.42,230.75a34.08,34.08,0,0,0,34.1-34.1V154a8.5,8.5,0,0,0-17,0v42.7a17.1,17.1,0,0,1-34.2,0V154a8.5,8.5,0,0,0-17,0v42.7A34,34,0,0,0,257.42,230.75Z"/><path id="Shape-6" data-name="Shape" class="cls-1" d="M312,229.05a8.54,8.54,0,0,0,11.9-1.7l18.8-25,18.8,25a8.72,8.72,0,0,0,7.8,3.4,8.55,8.55,0,0,0,5.8-13.6l-21.8-29,21.8-29a8.5,8.5,0,0,0-13.6-10.2l-18.8,25-18.8-25a8.72,8.72,0,0,0-7.8-3.4,8.55,8.55,0,0,0-5.8,13.6l21.8,29-21.8,29a8.39,8.39,0,0,0-1.6,6.3,8.61,8.61,0,0,0,3.3,5.6Z"/><path id="Shape-7" data-name="Shape" class="cls-1" d="M146.42,358.75h68.3a25.65,25.65,0,0,0,25.6-25.6V282a25.65,25.65,0,0,0-25.6-25.6h-68.3a25.65,25.65,0,0,0-25.6,25.6v51.2A25.65,25.65,0,0,0,146.42,358.75Zm-8.5-25.6v-50.1l70.3,58.6h-61.8A8.49,8.49,0,0,1,137.92,333.15Zm85.3-51.2v50.1l-70.3-58.6h61.8A8.49,8.49,0,0,1,223.22,282Z"/><path id="Shape-8" data-name="Shape" class="cls-1" d="M257.42,264.85a8.49,8.49,0,0,0,8.5,8.5h136.5a8.5,8.5,0,0,0,0-17H265.92A8.49,8.49,0,0,0,257.42,264.85Z"/><path id="Shape-9" data-name="Shape" class="cls-1" d="M334.22,375.85H129.42a8.5,8.5,0,1,0,0,17h204.8a8.5,8.5,0,0,0,0-17Z"/><path id="Shape-10" data-name="Shape" class="cls-1" d="M283,410H129.42a8.5,8.5,0,1,0,0,17H283a8.5,8.5,0,0,0,0-17Z"/><path id="Shape-11" data-name="Shape" class="cls-1" d="M359.82,299.05h-93.9a8.5,8.5,0,0,0,0,17h93.9a8.5,8.5,0,0,0,0-17Z"/><path id="Shape-12" data-name="Shape" class="cls-1" d="M342.72,341.65h-76.8a8.5,8.5,0,0,0,0,17h76.8a8.5,8.5,0,0,0,0-17Z"/><path id="Shape-13" data-name="Shape" class="cls-1" d="M470.72,367.25a34.1,34.1,0,1,0-34.1,34.1A34.08,34.08,0,0,0,470.72,367.25Zm-51.2,0a17.16,17.16,0,0,1,14-16.9,17,17,0,0,1,11.5,31.5v-6.2a8.5,8.5,0,0,0-17,0v6.2a16.73,16.73,0,0,1-8.5-14.6Z"/><path id="Shape-14" data-name="Shape" class="cls-1" d="M521.92,333.15a34.1,34.1,0,1,0,34.1,34.1A34.08,34.08,0,0,0,521.92,333.15Zm8.5,48.8v-6.2a8.5,8.5,0,0,0-17,0V382a17.07,17.07,0,1,1,17,0Z"/><path id="Shape-15" data-name="Shape" class="cls-1" d="M504.82,418.45h-51.2a17.09,17.09,0,0,0-17.1,17.1,42.7,42.7,0,0,0,85.4,0,17.19,17.19,0,0,0-5-12.1A17,17,0,0,0,504.82,418.45Zm-25.6,42.7a25.65,25.65,0,0,1-25.6-25.6h51.2A25.59,25.59,0,0,1,479.22,461.15Z"/></g></g></svg>